<?xml version="1.0" encoding="UTF-8"?>
<svg version="1.1" xmlns="http://www.w3.org/2000/svg" width="394" height="323">
<path d="M0 0 C130.02 0 260.04 0 394 0 C394 106.59 394 213.18 394 323 C263.98 323 133.96 323 0 323 C0 216.41 0 109.82 0 0 Z " fill="#FDFDFD" transform="translate(0,0)"/>
<path d="M0 0 C0.66 0 1.32 0 2 0 C3.54190978 2.00792308 4.93503752 4.00645133 6.3125 6.125 C6.96738403 7.11959229 6.96738403 7.11959229 7.63549805 8.13427734 C11.9611641 14.78810054 15.97147944 21.62417014 19.97875977 28.47265625 C23.65183708 34.74467444 27.40606759 40.95631554 31.25 47.125 C36.76675763 55.98055853 42.19508707 64.88747791 47.59738159 73.81307983 C52.28368053 81.55427926 57.01834565 89.26247814 61.8125 96.9375 C66.05997896 103.74577597 70.11852713 110.63675907 74.0625 117.625 C78.29344028 125.12093457 82.72155581 132.44544229 87.35961914 139.69580078 C91.33106464 145.90990709 95.18165543 152.19079446 99 158.5 C103.81750351 166.45648041 108.72140628 174.34848373 113.72680664 182.18798828 C117.53638224 188.18445925 121.14999281 194.28231418 124.61621094 200.48388672 C124.98907227 201.13631348 125.36193359 201.78874023 125.74609375 202.4609375 C126.06247803 203.02603027 126.3788623 203.59112305 126.70483398 204.17333984 C128.06128508 206.19986747 128.06128508 206.19986747 130.42016602 208.38134766 C132.94587233 210.94505788 134.67617167 213.36629109 136.53125 216.4375 C137.17006104 217.48631348 137.80887207 218.53512695 138.46704102 219.61572266 C139.13791748 220.73253418 139.80879395 221.8493457 140.5 223 C141.21268114 224.17413865 141.92615228 225.34779811 142.64038086 226.52099609 C144.08324189 228.89217271 145.52304339 231.26516123 146.96044922 233.63964844 C149.8003049 238.31857753 152.67718847 242.97400964 155.5625 247.625 C156.08062256 248.46144043 156.59874512 249.29788086 157.13256836 250.15966797 C161.2626747 256.82301639 165.40960374 263.47583593 169.5625 270.125 C170.18737305 271.12587646 170.81224609 272.12675293 171.45605469 273.15795898 C174.46670163 277.97350211 177.49060364 282.77967063 180.546875 287.56640625 C181.09915771 288.43313965 181.65144043 289.29987305 182.22045898 290.19287109 C183.25010119 291.80625616 184.28323643 293.41741963 185.32055664 295.02587891 C185.77809326 295.74308105 186.23562988 296.4602832 186.70703125 297.19921875 C187.1038208 297.81627686 187.50061035 298.43333496 187.90942383 299.0690918 C189 301 189 301 191 306 C65.93 306 -59.14 306 -188 306 C-184.62783576 297.00756203 -184.62783576 297.00756203 -182.7578125 294.23828125 C-182.12903198 293.28997437 -182.12903198 293.28997437 -181.48754883 292.32250977 C-181.03790771 291.65920654 -180.5882666 290.99590332 -180.125 290.3125 C-179.12963218 288.80853305 -178.13622672 287.30326598 -177.14453125 285.796875 C-176.62713379 285.01248047 -176.10973633 284.22808594 -175.57666016 283.41992188 C-172.92040866 279.34299948 -170.36559549 275.20453818 -167.8125 271.0625 C-167.27778076 270.19616943 -166.74306152 269.32983887 -166.19213867 268.43725586 C-163.13524986 263.47870044 -160.08745265 258.51456424 -157.0390625 253.55078125 C-155.67190824 251.32550041 -154.3047205 249.10024014 -152.9375 246.875 C-152.25888916 245.76946777 -151.58027832 244.66393555 -150.88110352 243.52490234 C-146.89455587 237.04129695 -142.84908419 230.60035297 -138.75 224.1875 C-134.67081065 217.79510765 -130.84372133 211.29557436 -127.125 204.6875 C-122.52623466 196.52092112 -117.63671405 188.59640222 -112.56079102 180.71899414 C-107.76842365 173.26224518 -103.14346459 165.71238443 -98.5625 158.125 C-93.0386703 148.98285503 -87.47236221 139.87139597 -81.8125 130.8125 C-81.2131665 129.85166504 -80.61383301 128.89083008 -79.99633789 127.90087891 C-78.34192301 125.26008377 -76.67262817 122.62928434 -75 120 C-74.20021729 118.71295166 -74.20021729 118.71295166 -73.38427734 117.39990234 C-72.86945801 116.59117676 -72.35463867 115.78245117 -71.82421875 114.94921875 C-71.37522217 114.23467529 -70.92622559 113.52013184 -70.46362305 112.78393555 C-68.81571951 110.77538991 -67.30901307 110.11562769 -65 109 C-64.3003322 107.01130459 -63.64332852 105.00762867 -63 103 C-61.09336954 99.39933815 -58.97936259 95.92541508 -56.875 92.4375 C-56.28533447 91.45096436 -55.69566895 90.46442871 -55.08813477 89.44799805 C-53.39910627 86.62769817 -51.70168541 83.8126769 -50 81 C-49.60441895 80.34483398 -49.20883789 79.68966797 -48.80126953 79.01464844 C-45.74370728 73.96327938 -42.61287913 68.95948694 -39.4453125 63.9765625 C-33.37570024 54.42371281 -27.42458652 44.80623066 -21.5625 35.125 C-20.83602607 33.92662274 -20.10946382 32.72829901 -19.3828125 31.5300293 C-15.18974231 24.61534921 -15.18974231 24.61534921 -11.00390625 17.69628906 C-9.19709209 14.70987281 -7.38112944 11.7292311 -5.5625 8.75 C-5.0250415 7.85684082 -4.48758301 6.96368164 -3.93383789 6.04345703 C-3.44133545 5.24020996 -2.94883301 4.43696289 -2.44140625 3.609375 C-2.01545166 2.90780273 -1.58949707 2.20623047 -1.15063477 1.48339844 C-0.77092529 0.99387695 -0.39121582 0.50435547 0 0 Z " fill="#C15350" transform="translate(197,12)"/>
<path d="M0 0 C0.66 0 1.32 0 2 0 C3.54190978 2.00792308 4.93503752 4.00645133 6.3125 6.125 C6.96738403 7.11959229 6.96738403 7.11959229 7.63549805 8.13427734 C11.9611641 14.78810054 15.97147944 21.62417014 19.97875977 28.47265625 C23.65183708 34.74467444 27.40606759 40.95631554 31.25 47.125 C36.76675763 55.98055853 42.19508707 64.88747791 47.59738159 73.81307983 C52.28368053 81.55427926 57.01834565 89.26247814 61.8125 96.9375 C66.05997896 103.74577597 70.11852713 110.63675907 74.0625 117.625 C78.29344028 125.12093457 82.72155581 132.44544229 87.35961914 139.69580078 C91.33106596 145.90990914 95.18157424 152.19084203 99 158.5 C103.36803864 165.71227311 107.78999639 172.88353626 112.3125 180 C116.00864468 185.82406098 119.6747644 191.66325376 123.25 197.5625 C123.63325439 198.18833984 124.01650879 198.81417969 124.41137695 199.45898438 C127 203.76385176 127 203.76385176 127 206 C43.51 206 -39.98 206 -126 206 C-124.87502465 200.37512327 -124.87502465 200.37512327 -123.0234375 197.41796875 C-122.40057861 196.41080811 -122.40057861 196.41080811 -121.76513672 195.38330078 C-121.3063916 194.65868652 -120.84764648 193.93407227 -120.375 193.1875 C-119.88918457 192.40616699 -119.40336914 191.62483398 -118.90283203 190.81982422 C-117.27638275 188.20823466 -115.63886338 185.60381484 -114 183 C-111.62321028 179.20945352 -109.24918258 175.4171798 -106.875 171.625 C-105.93636108 170.12839844 -105.93636108 170.12839844 -104.97875977 168.6015625 C-100.01693188 160.67360739 -95.15254788 152.69001444 -90.3125 144.6875 C-85.30012856 136.40617222 -80.27047201 128.13706897 -75.125 119.9375 C-74.64329346 119.1643042 -74.16158691 118.3911084 -73.6652832 117.59448242 C-73.22144287 116.89170166 -72.77760254 116.1889209 -72.3203125 115.46484375 C-71.94148926 114.862771 -71.56266602 114.26069824 -71.17236328 113.64038086 C-69.91272033 111.87787753 -68.63736309 110.41993034 -67 109 C-66.34 109 -65.68 109 -65 109 C-64.79632813 108.22785156 -64.59265625 107.45570312 -64.3828125 106.66015625 C-62.45592481 101.55989138 -59.68571206 97.09616719 -56.875 92.4375 C-56.28533447 91.45096436 -55.69566895 90.46442871 -55.08813477 89.44799805 C-53.39910627 86.62769817 -51.70168541 83.8126769 -50 81 C-49.60441895 80.34483398 -49.20883789 79.68966797 -48.80126953 79.01464844 C-45.74370728 73.96327938 -42.61287913 68.95948694 -39.4453125 63.9765625 C-33.37570024 54.42371281 -27.42458652 44.80623066 -21.5625 35.125 C-20.83602607 33.92662274 -20.10946382 32.72829901 -19.3828125 31.5300293 C-15.18974231 24.61534921 -15.18974231 24.61534921 -11.00390625 17.69628906 C-9.19709209 14.70987281 -7.38112944 11.7292311 -5.5625 8.75 C-5.0250415 7.85684082 -4.48758301 6.96368164 -3.93383789 6.04345703 C-3.44133545 5.24020996 -2.94883301 4.43696289 -2.44140625 3.609375 C-2.01545166 2.90780273 -1.58949707 2.20623047 -1.15063477 1.48339844 C-0.77092529 0.99387695 -0.39121582 0.50435547 0 0 Z " fill="#E26B0E" transform="translate(197,12)"/>
<path d="M0 0 C0.66 0 1.32 0 2 0 C3.54190978 2.00792308 4.93503752 4.00645133 6.3125 6.125 C6.74908936 6.78806152 7.18567871 7.45112305 7.63549805 8.13427734 C11.9611641 14.78810054 15.97147944 21.62417014 19.97875977 28.47265625 C23.65183708 34.74467444 27.40606759 40.95631554 31.25 47.125 C36.76275625 55.97413547 42.18874569 64.87369532 47.58529663 73.79394531 C51.34721058 80.0115841 55.12288803 86.21893905 58.97265625 92.3828125 C59.58109375 93.35734375 60.18953125 94.331875 60.81640625 95.3359375 C61.95432705 97.15355596 63.0960717 98.96878781 64.2421875 100.78125 C64.99048828 101.97621094 64.99048828 101.97621094 65.75390625 103.1953125 C66.40854858 104.23196045 66.40854858 104.23196045 67.07641602 105.28955078 C68 107 68 107 68 109 C24.11 109 -19.78 109 -65 109 C-63.56672727 104.7001818 -62.47885236 101.79618827 -60.2421875 98.05859375 C-59.70327881 97.15214111 -59.16437012 96.24568848 -58.60913086 95.31176758 C-58.03686768 94.36325928 -57.46460449 93.41475098 -56.875 92.4375 C-56.28533447 91.45096436 -55.69566895 90.46442871 -55.08813477 89.44799805 C-53.39910627 86.62769817 -51.70168541 83.8126769 -50 81 C-49.60441895 80.34483398 -49.20883789 79.68966797 -48.80126953 79.01464844 C-45.74370728 73.96327938 -42.61287913 68.95948694 -39.4453125 63.9765625 C-33.37570024 54.42371281 -27.42458652 44.80623066 -21.5625 35.125 C-20.83602607 33.92662274 -20.10946382 32.72829901 -19.3828125 31.5300293 C-15.18974231 24.61534921 -15.18974231 24.61534921 -11.00390625 17.69628906 C-9.19709209 14.70987281 -7.38112944 11.7292311 -5.5625 8.75 C-5.0250415 7.85684082 -4.48758301 6.96368164 -3.93383789 6.04345703 C-3.44133545 5.24020996 -2.94883301 4.43696289 -2.44140625 3.609375 C-2.01545166 2.90780273 -1.58949707 2.20623047 -1.15063477 1.48339844 C-0.77092529 0.99387695 -0.39121582 0.50435547 0 0 Z " fill="#79943E" transform="translate(197,12)"/>
</svg>
